<mxfile host="fdc31b88-2b78-451f-91a3-3dbda406018f" modified="2020-09-13T13:09:51.456Z" agent="5.0 (X11; Linux x86_64) AppleWebKit/537.36 (KHTML, like Gecko) Code/1.49.0 Chrome/83.0.4103.122 Electron/9.2.1 Safari/537.36" etag="aCG2aTJOZ4gH_L2giLWo" version="13.6.5">
    <diagram id="F9ccAHXRlg6QYEhfXNht" name="Page-2">
        <mxGraphModel dx="1614" dy="1598" grid="0" gridSize="10" guides="1" tooltips="1" connect="1" arrows="1" fold="1" page="1" pageScale="1" pageWidth="1169" pageHeight="827" background="none" math="0" shadow="0">
            <root>
                <mxCell id="4yJEjgQOaPBj33m1Sq-Z-0"/>
                <mxCell id="4yJEjgQOaPBj33m1Sq-Z-1" parent="4yJEjgQOaPBj33m1Sq-Z-0"/>
                <mxCell id="QMpGWt-PJ4E0V8jMxKkS-126" value="List of perfomances" style="shape=table;startSize=30;container=1;collapsible=1;childLayout=tableLayout;fixedRows=1;rowLines=0;fontStyle=1;align=center;resizeLast=1;" parent="4yJEjgQOaPBj33m1Sq-Z-1" vertex="1">
                    <mxGeometry x="346" y="-186" width="180" height="220" as="geometry"/>
                </mxCell>
                <mxCell id="QMpGWt-PJ4E0V8jMxKkS-127" value="" style="shape=partialRectangle;collapsible=0;dropTarget=0;pointerEvents=0;fillColor=none;top=0;left=0;bottom=1;right=0;points=[[0,0.5],[1,0.5]];portConstraint=eastwest;" parent="QMpGWt-PJ4E0V8jMxKkS-126" vertex="1">
                    <mxGeometry y="30" width="180" height="30" as="geometry"/>
                </mxCell>
                <mxCell id="QMpGWt-PJ4E0V8jMxKkS-128" value="PK" style="shape=partialRectangle;connectable=0;fillColor=none;top=0;left=0;bottom=0;right=0;fontStyle=1;overflow=hidden;" parent="QMpGWt-PJ4E0V8jMxKkS-127" vertex="1">
                    <mxGeometry width="30" height="30" as="geometry"/>
                </mxCell>
                <mxCell id="QMpGWt-PJ4E0V8jMxKkS-129" value="UniqueID" style="shape=partialRectangle;connectable=0;fillColor=none;top=0;left=0;bottom=0;right=0;align=left;spacingLeft=6;fontStyle=5;overflow=hidden;" parent="QMpGWt-PJ4E0V8jMxKkS-127" vertex="1">
                    <mxGeometry x="30" width="150" height="30" as="geometry"/>
                </mxCell>
                <mxCell id="QMpGWt-PJ4E0V8jMxKkS-130" value="" style="shape=partialRectangle;collapsible=0;dropTarget=0;pointerEvents=0;fillColor=none;top=0;left=0;bottom=0;right=0;points=[[0,0.5],[1,0.5]];portConstraint=eastwest;" parent="QMpGWt-PJ4E0V8jMxKkS-126" vertex="1">
                    <mxGeometry y="60" width="180" height="30" as="geometry"/>
                </mxCell>
                <mxCell id="QMpGWt-PJ4E0V8jMxKkS-131" value="FK" style="shape=partialRectangle;connectable=0;fillColor=none;top=0;left=0;bottom=0;right=0;editable=1;overflow=hidden;" parent="QMpGWt-PJ4E0V8jMxKkS-130" vertex="1">
                    <mxGeometry width="30" height="30" as="geometry"/>
                </mxCell>
                <mxCell id="QMpGWt-PJ4E0V8jMxKkS-132" value="Festival ID" style="shape=partialRectangle;connectable=0;fillColor=none;top=0;left=0;bottom=0;right=0;align=left;spacingLeft=6;overflow=hidden;" parent="QMpGWt-PJ4E0V8jMxKkS-130" vertex="1">
                    <mxGeometry x="30" width="150" height="30" as="geometry"/>
                </mxCell>
                <mxCell id="QMpGWt-PJ4E0V8jMxKkS-136" value="" style="shape=partialRectangle;collapsible=0;dropTarget=0;pointerEvents=0;fillColor=none;top=0;left=0;bottom=0;right=0;points=[[0,0.5],[1,0.5]];portConstraint=eastwest;" parent="QMpGWt-PJ4E0V8jMxKkS-126" vertex="1">
                    <mxGeometry y="90" width="180" height="30" as="geometry"/>
                </mxCell>
                <mxCell id="QMpGWt-PJ4E0V8jMxKkS-137" value="FK" style="shape=partialRectangle;connectable=0;fillColor=none;top=0;left=0;bottom=0;right=0;editable=1;overflow=hidden;" parent="QMpGWt-PJ4E0V8jMxKkS-136" vertex="1">
                    <mxGeometry width="30" height="30" as="geometry"/>
                </mxCell>
                <mxCell id="QMpGWt-PJ4E0V8jMxKkS-138" value="Band ID" style="shape=partialRectangle;connectable=0;fillColor=none;top=0;left=0;bottom=0;right=0;align=left;spacingLeft=6;overflow=hidden;" parent="QMpGWt-PJ4E0V8jMxKkS-136" vertex="1">
                    <mxGeometry x="30" width="150" height="30" as="geometry"/>
                </mxCell>
                <mxCell id="QMpGWt-PJ4E0V8jMxKkS-133" value="" style="shape=partialRectangle;collapsible=0;dropTarget=0;pointerEvents=0;fillColor=none;top=0;left=0;bottom=0;right=0;points=[[0,0.5],[1,0.5]];portConstraint=eastwest;" parent="QMpGWt-PJ4E0V8jMxKkS-126" vertex="1">
                    <mxGeometry y="120" width="180" height="30" as="geometry"/>
                </mxCell>
                <mxCell id="QMpGWt-PJ4E0V8jMxKkS-134" value="FK" style="shape=partialRectangle;connectable=0;fillColor=none;top=0;left=0;bottom=0;right=0;editable=1;overflow=hidden;" parent="QMpGWt-PJ4E0V8jMxKkS-133" vertex="1">
                    <mxGeometry width="30" height="30" as="geometry"/>
                </mxCell>
                <mxCell id="QMpGWt-PJ4E0V8jMxKkS-135" value="Stage ID" style="shape=partialRectangle;connectable=0;fillColor=none;top=0;left=0;bottom=0;right=0;align=left;spacingLeft=6;overflow=hidden;" parent="QMpGWt-PJ4E0V8jMxKkS-133" vertex="1">
                    <mxGeometry x="30" width="150" height="30" as="geometry"/>
                </mxCell>
                <mxCell id="7" value="" style="shape=partialRectangle;collapsible=0;dropTarget=0;pointerEvents=0;fillColor=none;top=0;left=0;bottom=0;right=0;points=[[0,0.5],[1,0.5]];portConstraint=eastwest;" parent="QMpGWt-PJ4E0V8jMxKkS-126" vertex="1">
                    <mxGeometry y="150" width="180" height="30" as="geometry"/>
                </mxCell>
                <mxCell id="8" value="" style="shape=partialRectangle;connectable=0;fillColor=none;top=0;left=0;bottom=0;right=0;editable=1;overflow=hidden;" parent="7" vertex="1">
                    <mxGeometry width="30" height="30" as="geometry"/>
                </mxCell>
                <mxCell id="9" value="Time from" style="shape=partialRectangle;connectable=0;fillColor=none;top=0;left=0;bottom=0;right=0;align=left;spacingLeft=6;overflow=hidden;" parent="7" vertex="1">
                    <mxGeometry x="30" width="150" height="30" as="geometry"/>
                </mxCell>
                <mxCell id="10" value="" style="shape=partialRectangle;collapsible=0;dropTarget=0;pointerEvents=0;fillColor=none;top=0;left=0;bottom=0;right=0;points=[[0,0.5],[1,0.5]];portConstraint=eastwest;" parent="QMpGWt-PJ4E0V8jMxKkS-126" vertex="1">
                    <mxGeometry y="180" width="180" height="30" as="geometry"/>
                </mxCell>
                <mxCell id="11" value="" style="shape=partialRectangle;connectable=0;fillColor=none;top=0;left=0;bottom=0;right=0;editable=1;overflow=hidden;" parent="10" vertex="1">
                    <mxGeometry width="30" height="30" as="geometry"/>
                </mxCell>
                <mxCell id="12" value="Time to" style="shape=partialRectangle;connectable=0;fillColor=none;top=0;left=0;bottom=0;right=0;align=left;spacingLeft=6;overflow=hidden;" parent="10" vertex="1">
                    <mxGeometry x="30" width="150" height="30" as="geometry"/>
                </mxCell>
                <mxCell id="QMpGWt-PJ4E0V8jMxKkS-0" value="" style="edgeStyle=orthogonalEdgeStyle;rounded=0;orthogonalLoop=1;jettySize=auto;html=1;exitX=0.5;exitY=0;exitDx=0;exitDy=0;entryX=0;entryY=0.5;entryDx=0;entryDy=0;" parent="4yJEjgQOaPBj33m1Sq-Z-1" source="QMpGWt-PJ4E0V8jMxKkS-1" target="QMpGWt-PJ4E0V8jMxKkS-130" edge="1">
                    <mxGeometry relative="1" as="geometry">
                        <mxPoint x="436" y="70" as="targetPoint"/>
                        <Array as="points">
                            <mxPoint x="191" y="-111"/>
                        </Array>
                    </mxGeometry>
                </mxCell>
                <mxCell id="QMpGWt-PJ4E0V8jMxKkS-1" value="Festival" style="shape=table;startSize=30;container=1;collapsible=1;childLayout=tableLayout;fixedRows=1;rowLines=0;fontStyle=1;align=center;resizeLast=1;" parent="4yJEjgQOaPBj33m1Sq-Z-1" vertex="1">
                    <mxGeometry x="66" y="101" width="250" height="311.75" as="geometry"/>
                </mxCell>
                <mxCell id="QMpGWt-PJ4E0V8jMxKkS-2" value="" style="shape=partialRectangle;collapsible=0;dropTarget=0;pointerEvents=0;fillColor=none;points=[[0,0.5],[1,0.5]];portConstraint=eastwest;top=0;left=0;right=0;bottom=1;" parent="QMpGWt-PJ4E0V8jMxKkS-1" vertex="1">
                    <mxGeometry y="30" width="250" height="30" as="geometry"/>
                </mxCell>
                <mxCell id="QMpGWt-PJ4E0V8jMxKkS-3" value="PK" style="shape=partialRectangle;overflow=hidden;connectable=0;fillColor=none;top=0;left=0;bottom=0;right=0;fontStyle=1;" parent="QMpGWt-PJ4E0V8jMxKkS-2" vertex="1">
                    <mxGeometry width="30" height="30" as="geometry"/>
                </mxCell>
                <mxCell id="QMpGWt-PJ4E0V8jMxKkS-4" value="Unique_ID int NOT NULL" style="shape=partialRectangle;overflow=hidden;connectable=0;fillColor=none;top=0;left=0;bottom=0;right=0;align=left;spacingLeft=6;fontStyle=5;" parent="QMpGWt-PJ4E0V8jMxKkS-2" vertex="1">
                    <mxGeometry x="30" width="220" height="30" as="geometry"/>
                </mxCell>
                <mxCell id="QMpGWt-PJ4E0V8jMxKkS-5" value="" style="shape=partialRectangle;collapsible=0;dropTarget=0;pointerEvents=0;fillColor=none;points=[[0,0.5],[1,0.5]];portConstraint=eastwest;top=0;left=0;right=0;bottom=0;" parent="QMpGWt-PJ4E0V8jMxKkS-1" vertex="1">
                    <mxGeometry y="60" width="250" height="30" as="geometry"/>
                </mxCell>
                <mxCell id="QMpGWt-PJ4E0V8jMxKkS-6" value="" style="shape=partialRectangle;overflow=hidden;connectable=0;fillColor=none;top=0;left=0;bottom=0;right=0;" parent="QMpGWt-PJ4E0V8jMxKkS-5" vertex="1">
                    <mxGeometry width="30" height="30" as="geometry"/>
                </mxCell>
                <mxCell id="QMpGWt-PJ4E0V8jMxKkS-7" value="Description" style="shape=partialRectangle;overflow=hidden;connectable=0;fillColor=none;top=0;left=0;bottom=0;right=0;align=left;spacingLeft=6;" parent="QMpGWt-PJ4E0V8jMxKkS-5" vertex="1">
                    <mxGeometry x="30" width="220" height="30" as="geometry"/>
                </mxCell>
                <mxCell id="QMpGWt-PJ4E0V8jMxKkS-8" value="" style="shape=partialRectangle;collapsible=0;dropTarget=0;pointerEvents=0;fillColor=none;top=0;left=0;bottom=0;right=0;points=[[0,0.5],[1,0.5]];portConstraint=eastwest;" parent="QMpGWt-PJ4E0V8jMxKkS-1" vertex="1">
                    <mxGeometry y="90" width="250" height="30" as="geometry"/>
                </mxCell>
                <mxCell id="QMpGWt-PJ4E0V8jMxKkS-9" value="" style="shape=partialRectangle;connectable=0;fillColor=none;top=0;left=0;bottom=0;right=0;editable=1;overflow=hidden;" parent="QMpGWt-PJ4E0V8jMxKkS-8" vertex="1">
                    <mxGeometry width="30" height="30" as="geometry"/>
                </mxCell>
                <mxCell id="QMpGWt-PJ4E0V8jMxKkS-10" value="Style" style="shape=partialRectangle;connectable=0;fillColor=none;top=0;left=0;bottom=0;right=0;align=left;spacingLeft=6;overflow=hidden;" parent="QMpGWt-PJ4E0V8jMxKkS-8" vertex="1">
                    <mxGeometry x="30" width="220" height="30" as="geometry"/>
                </mxCell>
                <mxCell id="QMpGWt-PJ4E0V8jMxKkS-11" value="" style="shape=partialRectangle;collapsible=0;dropTarget=0;pointerEvents=0;fillColor=none;top=0;left=0;bottom=0;right=0;points=[[0,0.5],[1,0.5]];portConstraint=eastwest;" parent="QMpGWt-PJ4E0V8jMxKkS-1" vertex="1">
                    <mxGeometry y="120" width="250" height="30" as="geometry"/>
                </mxCell>
                <mxCell id="QMpGWt-PJ4E0V8jMxKkS-12" value="" style="shape=partialRectangle;connectable=0;fillColor=none;top=0;left=0;bottom=0;right=0;editable=1;overflow=hidden;" parent="QMpGWt-PJ4E0V8jMxKkS-11" vertex="1">
                    <mxGeometry width="30" height="30" as="geometry"/>
                </mxCell>
                <mxCell id="QMpGWt-PJ4E0V8jMxKkS-13" value="Address" style="shape=partialRectangle;connectable=0;fillColor=none;top=0;left=0;bottom=0;right=0;align=left;spacingLeft=6;overflow=hidden;" parent="QMpGWt-PJ4E0V8jMxKkS-11" vertex="1">
                    <mxGeometry x="30" width="220" height="30" as="geometry"/>
                </mxCell>
                <mxCell id="QMpGWt-PJ4E0V8jMxKkS-14" value="" style="shape=partialRectangle;collapsible=0;dropTarget=0;pointerEvents=0;fillColor=none;top=0;left=0;bottom=0;right=0;points=[[0,0.5],[1,0.5]];portConstraint=eastwest;" parent="QMpGWt-PJ4E0V8jMxKkS-1" vertex="1">
                    <mxGeometry y="150" width="250" height="30" as="geometry"/>
                </mxCell>
                <mxCell id="QMpGWt-PJ4E0V8jMxKkS-15" value="" style="shape=partialRectangle;connectable=0;fillColor=none;top=0;left=0;bottom=0;right=0;editable=1;overflow=hidden;" parent="QMpGWt-PJ4E0V8jMxKkS-14" vertex="1">
                    <mxGeometry width="30" height="30" as="geometry"/>
                </mxCell>
                <mxCell id="QMpGWt-PJ4E0V8jMxKkS-16" value="Cost" style="shape=partialRectangle;connectable=0;fillColor=none;top=0;left=0;bottom=0;right=0;align=left;spacingLeft=6;overflow=hidden;" parent="QMpGWt-PJ4E0V8jMxKkS-14" vertex="1">
                    <mxGeometry x="30" width="220" height="30" as="geometry"/>
                </mxCell>
                <mxCell id="QMpGWt-PJ4E0V8jMxKkS-20" value="" style="shape=partialRectangle;collapsible=0;dropTarget=0;pointerEvents=0;fillColor=none;top=0;left=0;bottom=0;right=0;points=[[0,0.5],[1,0.5]];portConstraint=eastwest;" parent="QMpGWt-PJ4E0V8jMxKkS-1" vertex="1">
                    <mxGeometry y="180" width="250" height="30" as="geometry"/>
                </mxCell>
                <mxCell id="QMpGWt-PJ4E0V8jMxKkS-21" value="" style="shape=partialRectangle;connectable=0;fillColor=none;top=0;left=0;bottom=0;right=0;editable=1;overflow=hidden;" parent="QMpGWt-PJ4E0V8jMxKkS-20" vertex="1">
                    <mxGeometry width="30" height="30" as="geometry"/>
                </mxCell>
                <mxCell id="QMpGWt-PJ4E0V8jMxKkS-22" value="Time from" style="shape=partialRectangle;connectable=0;fillColor=none;top=0;left=0;bottom=0;right=0;align=left;spacingLeft=6;overflow=hidden;" parent="QMpGWt-PJ4E0V8jMxKkS-20" vertex="1">
                    <mxGeometry x="30" width="220" height="30" as="geometry"/>
                </mxCell>
                <mxCell id="QMpGWt-PJ4E0V8jMxKkS-23" value="" style="shape=partialRectangle;collapsible=0;dropTarget=0;pointerEvents=0;fillColor=none;top=0;left=0;bottom=0;right=0;points=[[0,0.5],[1,0.5]];portConstraint=eastwest;" parent="QMpGWt-PJ4E0V8jMxKkS-1" vertex="1">
                    <mxGeometry y="210" width="250" height="32" as="geometry"/>
                </mxCell>
                <mxCell id="QMpGWt-PJ4E0V8jMxKkS-24" value="" style="shape=partialRectangle;connectable=0;fillColor=none;top=0;left=0;bottom=0;right=0;editable=1;overflow=hidden;" parent="QMpGWt-PJ4E0V8jMxKkS-23" vertex="1">
                    <mxGeometry width="30" height="32" as="geometry"/>
                </mxCell>
                <mxCell id="QMpGWt-PJ4E0V8jMxKkS-25" value="Time to" style="shape=partialRectangle;connectable=0;fillColor=none;top=0;left=0;bottom=0;right=0;align=left;spacingLeft=6;overflow=hidden;" parent="QMpGWt-PJ4E0V8jMxKkS-23" vertex="1">
                    <mxGeometry x="30" width="220" height="32" as="geometry"/>
                </mxCell>
                <mxCell id="QMpGWt-PJ4E0V8jMxKkS-26" value="" style="shape=partialRectangle;collapsible=0;dropTarget=0;pointerEvents=0;fillColor=none;top=0;left=0;bottom=0;right=0;points=[[0,0.5],[1,0.5]];portConstraint=eastwest;" parent="QMpGWt-PJ4E0V8jMxKkS-1" vertex="1">
                    <mxGeometry y="242" width="250" height="30" as="geometry"/>
                </mxCell>
                <mxCell id="QMpGWt-PJ4E0V8jMxKkS-27" value="" style="shape=partialRectangle;connectable=0;fillColor=none;top=0;left=0;bottom=0;right=0;editable=1;overflow=hidden;" parent="QMpGWt-PJ4E0V8jMxKkS-26" vertex="1">
                    <mxGeometry width="30" height="30" as="geometry"/>
                </mxCell>
                <mxCell id="QMpGWt-PJ4E0V8jMxKkS-28" value="Capacity" style="shape=partialRectangle;connectable=0;fillColor=none;top=0;left=0;bottom=0;right=0;align=left;spacingLeft=6;overflow=hidden;" parent="QMpGWt-PJ4E0V8jMxKkS-26" vertex="1">
                    <mxGeometry x="30" width="220" height="30" as="geometry"/>
                </mxCell>
                <mxCell id="QMpGWt-PJ4E0V8jMxKkS-29" value="" style="shape=partialRectangle;collapsible=0;dropTarget=0;pointerEvents=0;fillColor=none;top=0;left=0;bottom=0;right=0;points=[[0,0.5],[1,0.5]];portConstraint=eastwest;" parent="QMpGWt-PJ4E0V8jMxKkS-1" vertex="1">
                    <mxGeometry y="272" width="250" height="30" as="geometry"/>
                </mxCell>
                <mxCell id="QMpGWt-PJ4E0V8jMxKkS-30" value="" style="shape=partialRectangle;connectable=0;fillColor=none;top=0;left=0;bottom=0;right=0;editable=1;overflow=hidden;" parent="QMpGWt-PJ4E0V8jMxKkS-29" vertex="1">
                    <mxGeometry width="30" height="30" as="geometry"/>
                </mxCell>
                <mxCell id="QMpGWt-PJ4E0V8jMxKkS-31" value="Age restriction?" style="shape=partialRectangle;connectable=0;fillColor=none;top=0;left=0;bottom=0;right=0;align=left;spacingLeft=6;overflow=hidden;" parent="QMpGWt-PJ4E0V8jMxKkS-29" vertex="1">
                    <mxGeometry x="30" width="220" height="30" as="geometry"/>
                </mxCell>
                <mxCell id="QMpGWt-PJ4E0V8jMxKkS-32" value="" style="edgeStyle=orthogonalEdgeStyle;rounded=0;orthogonalLoop=1;jettySize=auto;html=1;exitX=0.25;exitY=0;exitDx=0;exitDy=0;entryX=1;entryY=0.5;entryDx=0;entryDy=0;" parent="4yJEjgQOaPBj33m1Sq-Z-1" source="QMpGWt-PJ4E0V8jMxKkS-83" target="QMpGWt-PJ4E0V8jMxKkS-136" edge="1">
                    <mxGeometry relative="1" as="geometry"/>
                </mxCell>
                <mxCell id="QMpGWt-PJ4E0V8jMxKkS-33" style="edgeStyle=orthogonalEdgeStyle;rounded=0;orthogonalLoop=1;jettySize=auto;html=1;exitX=0.004;exitY=0.078;exitDx=0;exitDy=0;entryX=0.002;entryY=0.055;entryDx=0;entryDy=0;entryPerimeter=0;exitPerimeter=0;" parent="4yJEjgQOaPBj33m1Sq-Z-1" source="QMpGWt-PJ4E0V8jMxKkS-49" target="QMpGWt-PJ4E0V8jMxKkS-1" edge="1">
                    <mxGeometry relative="1" as="geometry"/>
                </mxCell>
                <mxCell id="QMpGWt-PJ4E0V8jMxKkS-35" style="edgeStyle=orthogonalEdgeStyle;rounded=0;orthogonalLoop=1;jettySize=auto;html=1;exitX=0.25;exitY=0;exitDx=0;exitDy=0;entryX=0.75;entryY=0;entryDx=0;entryDy=0;" parent="4yJEjgQOaPBj33m1Sq-Z-1" source="QMpGWt-PJ4E0V8jMxKkS-113" target="QMpGWt-PJ4E0V8jMxKkS-49" edge="1">
                    <mxGeometry relative="1" as="geometry"/>
                </mxCell>
                <mxCell id="QMpGWt-PJ4E0V8jMxKkS-37" style="edgeStyle=orthogonalEdgeStyle;rounded=0;orthogonalLoop=1;jettySize=auto;html=1;dashed=1;endArrow=none;endFill=0;startArrow=classic;startFill=1;" parent="4yJEjgQOaPBj33m1Sq-Z-1" source="QMpGWt-PJ4E0V8jMxKkS-113" edge="1">
                    <mxGeometry relative="1" as="geometry">
                        <mxPoint x="556" y="576" as="targetPoint"/>
                        <Array as="points">
                            <mxPoint x="556" y="576"/>
                        </Array>
                    </mxGeometry>
                </mxCell>
                <mxCell id="QMpGWt-PJ4E0V8jMxKkS-38" value="1.. N&amp;nbsp;" style="text;html=1;strokeColor=none;fillColor=none;align=center;verticalAlign=middle;whiteSpace=wrap;rounded=0;" parent="4yJEjgQOaPBj33m1Sq-Z-1" vertex="1">
                    <mxGeometry x="166" y="471" width="40" height="20" as="geometry"/>
                </mxCell>
                <mxCell id="QMpGWt-PJ4E0V8jMxKkS-39" value="1" style="text;html=1;strokeColor=none;fillColor=none;align=center;verticalAlign=middle;whiteSpace=wrap;rounded=0;" parent="4yJEjgQOaPBj33m1Sq-Z-1" vertex="1">
                    <mxGeometry x="353" y="468" width="40" height="20" as="geometry"/>
                </mxCell>
                <mxCell id="QMpGWt-PJ4E0V8jMxKkS-41" value="1" style="text;html=1;strokeColor=none;fillColor=none;align=center;verticalAlign=middle;whiteSpace=wrap;rounded=0;" parent="4yJEjgQOaPBj33m1Sq-Z-1" vertex="1">
                    <mxGeometry x="153" y="70" width="40" height="20" as="geometry"/>
                </mxCell>
                <mxCell id="QMpGWt-PJ4E0V8jMxKkS-42" value="0.. N" style="text;html=1;strokeColor=none;fillColor=none;align=center;verticalAlign=middle;whiteSpace=wrap;rounded=0;" parent="4yJEjgQOaPBj33m1Sq-Z-1" vertex="1">
                    <mxGeometry x="531" y="-78" width="40" height="20" as="geometry"/>
                </mxCell>
                <mxCell id="QMpGWt-PJ4E0V8jMxKkS-44" value="1&lt;br&gt;" style="text;html=1;align=center;verticalAlign=middle;resizable=0;points=[];autosize=1;" parent="4yJEjgQOaPBj33m1Sq-Z-1" vertex="1">
                    <mxGeometry x="36" y="91" width="20" height="20" as="geometry"/>
                </mxCell>
                <mxCell id="QMpGWt-PJ4E0V8jMxKkS-45" value="1.. N" style="text;html=1;align=center;verticalAlign=middle;resizable=0;points=[];autosize=1;" parent="4yJEjgQOaPBj33m1Sq-Z-1" vertex="1">
                    <mxGeometry x="26" y="521" width="40" height="20" as="geometry"/>
                </mxCell>
                <mxCell id="QMpGWt-PJ4E0V8jMxKkS-46" style="edgeStyle=orthogonalEdgeStyle;rounded=0;orthogonalLoop=1;jettySize=auto;html=1;exitX=0.006;exitY=0.17;exitDx=0;exitDy=0;dashed=1;endArrow=none;endFill=0;exitPerimeter=0;" parent="4yJEjgQOaPBj33m1Sq-Z-1" source="QMpGWt-PJ4E0V8jMxKkS-66" edge="1">
                    <mxGeometry relative="1" as="geometry">
                        <mxPoint x="553" y="511" as="targetPoint"/>
                    </mxGeometry>
                </mxCell>
                <mxCell id="QMpGWt-PJ4E0V8jMxKkS-47" value="" style="endArrow=none;html=1;dashed=1;edgeStyle=orthogonalEdgeStyle;exitX=0;exitY=0.25;exitDx=0;exitDy=0;entryX=0;entryY=0.25;entryDx=0;entryDy=0;" parent="4yJEjgQOaPBj33m1Sq-Z-1" source="QMpGWt-PJ4E0V8jMxKkS-105" target="QMpGWt-PJ4E0V8jMxKkS-62" edge="1">
                    <mxGeometry width="50" height="50" relative="1" as="geometry">
                        <mxPoint x="403" y="641" as="sourcePoint"/>
                        <mxPoint x="453" y="591" as="targetPoint"/>
                        <Array as="points">
                            <mxPoint x="553" y="749"/>
                            <mxPoint x="553" y="409"/>
                        </Array>
                    </mxGeometry>
                </mxCell>
                <mxCell id="QMpGWt-PJ4E0V8jMxKkS-48" value="" style="endArrow=none;dashed=1;html=1;exitX=0;exitY=0.25;exitDx=0;exitDy=0;rounded=0;endFill=0;" parent="4yJEjgQOaPBj33m1Sq-Z-1" source="QMpGWt-PJ4E0V8jMxKkS-109" edge="1">
                    <mxGeometry width="50" height="50" relative="1" as="geometry">
                        <mxPoint x="363" y="731" as="sourcePoint"/>
                        <mxPoint x="553" y="639" as="targetPoint"/>
                    </mxGeometry>
                </mxCell>
                <mxCell id="QMpGWt-PJ4E0V8jMxKkS-49" value="Ticket" style="shape=table;startSize=30;container=1;collapsible=1;childLayout=tableLayout;fixedRows=1;rowLines=0;fontStyle=1;align=center;resizeLast=1;" parent="4yJEjgQOaPBj33m1Sq-Z-1" vertex="1">
                    <mxGeometry x="66" y="501" width="180" height="160" as="geometry"/>
                </mxCell>
                <mxCell id="QMpGWt-PJ4E0V8jMxKkS-50" value="" style="shape=partialRectangle;collapsible=0;dropTarget=0;pointerEvents=0;fillColor=none;top=0;left=0;bottom=1;right=0;points=[[0,0.5],[1,0.5]];portConstraint=eastwest;" parent="QMpGWt-PJ4E0V8jMxKkS-49" vertex="1">
                    <mxGeometry y="30" width="180" height="30" as="geometry"/>
                </mxCell>
                <mxCell id="QMpGWt-PJ4E0V8jMxKkS-51" value="PK" style="shape=partialRectangle;connectable=0;fillColor=none;top=0;left=0;bottom=0;right=0;fontStyle=1;overflow=hidden;" parent="QMpGWt-PJ4E0V8jMxKkS-50" vertex="1">
                    <mxGeometry width="30" height="30" as="geometry"/>
                </mxCell>
                <mxCell id="QMpGWt-PJ4E0V8jMxKkS-52" value="Unique ID NOT NULL" style="shape=partialRectangle;connectable=0;fillColor=none;top=0;left=0;bottom=0;right=0;align=left;spacingLeft=6;fontStyle=5;overflow=hidden;" parent="QMpGWt-PJ4E0V8jMxKkS-50" vertex="1">
                    <mxGeometry x="30" width="150" height="30" as="geometry"/>
                </mxCell>
                <mxCell id="QMpGWt-PJ4E0V8jMxKkS-53" value="" style="shape=partialRectangle;collapsible=0;dropTarget=0;pointerEvents=0;fillColor=none;top=0;left=0;bottom=0;right=0;points=[[0,0.5],[1,0.5]];portConstraint=eastwest;" parent="QMpGWt-PJ4E0V8jMxKkS-49" vertex="1">
                    <mxGeometry y="60" width="180" height="30" as="geometry"/>
                </mxCell>
                <mxCell id="QMpGWt-PJ4E0V8jMxKkS-54" value="FK" style="shape=partialRectangle;connectable=0;fillColor=none;top=0;left=0;bottom=0;right=0;editable=1;overflow=hidden;" parent="QMpGWt-PJ4E0V8jMxKkS-53" vertex="1">
                    <mxGeometry width="30" height="30" as="geometry"/>
                </mxCell>
                <mxCell id="QMpGWt-PJ4E0V8jMxKkS-55" value="Person ID" style="shape=partialRectangle;connectable=0;fillColor=none;top=0;left=0;bottom=0;right=0;align=left;spacingLeft=6;overflow=hidden;" parent="QMpGWt-PJ4E0V8jMxKkS-53" vertex="1">
                    <mxGeometry x="30" width="150" height="30" as="geometry"/>
                </mxCell>
                <mxCell id="QMpGWt-PJ4E0V8jMxKkS-56" value="" style="shape=partialRectangle;collapsible=0;dropTarget=0;pointerEvents=0;fillColor=none;top=0;left=0;bottom=0;right=0;points=[[0,0.5],[1,0.5]];portConstraint=eastwest;" parent="QMpGWt-PJ4E0V8jMxKkS-49" vertex="1">
                    <mxGeometry y="90" width="180" height="30" as="geometry"/>
                </mxCell>
                <mxCell id="QMpGWt-PJ4E0V8jMxKkS-57" value="FK" style="shape=partialRectangle;connectable=0;fillColor=none;top=0;left=0;bottom=0;right=0;editable=1;overflow=hidden;" parent="QMpGWt-PJ4E0V8jMxKkS-56" vertex="1">
                    <mxGeometry width="30" height="30" as="geometry"/>
                </mxCell>
                <mxCell id="QMpGWt-PJ4E0V8jMxKkS-58" value="Festival ID" style="shape=partialRectangle;connectable=0;fillColor=none;top=0;left=0;bottom=0;right=0;align=left;spacingLeft=6;overflow=hidden;" parent="QMpGWt-PJ4E0V8jMxKkS-56" vertex="1">
                    <mxGeometry x="30" width="150" height="30" as="geometry"/>
                </mxCell>
                <mxCell id="QMpGWt-PJ4E0V8jMxKkS-59" value="" style="shape=partialRectangle;collapsible=0;dropTarget=0;pointerEvents=0;fillColor=none;top=0;left=0;bottom=0;right=0;points=[[0,0.5],[1,0.5]];portConstraint=eastwest;" parent="QMpGWt-PJ4E0V8jMxKkS-49" vertex="1">
                    <mxGeometry y="120" width="180" height="30" as="geometry"/>
                </mxCell>
                <mxCell id="QMpGWt-PJ4E0V8jMxKkS-60" value="" style="shape=partialRectangle;connectable=0;fillColor=none;top=0;left=0;bottom=0;right=0;editable=1;overflow=hidden;" parent="QMpGWt-PJ4E0V8jMxKkS-59" vertex="1">
                    <mxGeometry width="30" height="30" as="geometry"/>
                </mxCell>
                <mxCell id="QMpGWt-PJ4E0V8jMxKkS-61" value="" style="shape=partialRectangle;connectable=0;fillColor=none;top=0;left=0;bottom=0;right=0;align=left;spacingLeft=6;overflow=hidden;" parent="QMpGWt-PJ4E0V8jMxKkS-59" vertex="1">
                    <mxGeometry x="30" width="150" height="30" as="geometry"/>
                </mxCell>
                <mxCell id="QMpGWt-PJ4E0V8jMxKkS-62" value="Organizer" style="shape=table;startSize=30;container=1;collapsible=1;childLayout=tableLayout;fixedRows=1;rowLines=0;fontStyle=1;align=center;resizeLast=1;" parent="4yJEjgQOaPBj33m1Sq-Z-1" vertex="1">
                    <mxGeometry x="583" y="391" width="180" height="70" as="geometry"/>
                </mxCell>
                <mxCell id="QMpGWt-PJ4E0V8jMxKkS-63" value="" style="shape=partialRectangle;collapsible=0;dropTarget=0;pointerEvents=0;fillColor=none;top=0;left=0;bottom=1;right=0;points=[[0,0.5],[1,0.5]];portConstraint=eastwest;" parent="QMpGWt-PJ4E0V8jMxKkS-62" vertex="1">
                    <mxGeometry y="30" width="180" height="30" as="geometry"/>
                </mxCell>
                <mxCell id="QMpGWt-PJ4E0V8jMxKkS-64" value="PK" style="shape=partialRectangle;connectable=0;fillColor=none;top=0;left=0;bottom=0;right=0;fontStyle=1;overflow=hidden;" parent="QMpGWt-PJ4E0V8jMxKkS-63" vertex="1">
                    <mxGeometry width="30" height="30" as="geometry"/>
                </mxCell>
                <mxCell id="QMpGWt-PJ4E0V8jMxKkS-65" value="UniqueID" style="shape=partialRectangle;connectable=0;fillColor=none;top=0;left=0;bottom=0;right=0;align=left;spacingLeft=6;fontStyle=5;overflow=hidden;" parent="QMpGWt-PJ4E0V8jMxKkS-63" vertex="1">
                    <mxGeometry x="30" width="150" height="30" as="geometry"/>
                </mxCell>
                <mxCell id="QMpGWt-PJ4E0V8jMxKkS-66" value="Viewer" style="shape=table;startSize=30;container=1;collapsible=1;childLayout=tableLayout;fixedRows=1;rowLines=0;fontStyle=1;align=center;resizeLast=1;" parent="4yJEjgQOaPBj33m1Sq-Z-1" vertex="1">
                    <mxGeometry x="583" y="491" width="180" height="100" as="geometry"/>
                </mxCell>
                <mxCell id="QMpGWt-PJ4E0V8jMxKkS-67" value="" style="shape=partialRectangle;collapsible=0;dropTarget=0;pointerEvents=0;fillColor=none;top=0;left=0;bottom=1;right=0;points=[[0,0.5],[1,0.5]];portConstraint=eastwest;" parent="QMpGWt-PJ4E0V8jMxKkS-66" vertex="1">
                    <mxGeometry y="30" width="180" height="30" as="geometry"/>
                </mxCell>
                <mxCell id="QMpGWt-PJ4E0V8jMxKkS-68" value="PK" style="shape=partialRectangle;connectable=0;fillColor=none;top=0;left=0;bottom=0;right=0;fontStyle=1;overflow=hidden;" parent="QMpGWt-PJ4E0V8jMxKkS-67" vertex="1">
                    <mxGeometry width="30" height="30" as="geometry"/>
                </mxCell>
                <mxCell id="QMpGWt-PJ4E0V8jMxKkS-69" value="UniqueID" style="shape=partialRectangle;connectable=0;fillColor=none;top=0;left=0;bottom=0;right=0;align=left;spacingLeft=6;fontStyle=5;overflow=hidden;" parent="QMpGWt-PJ4E0V8jMxKkS-67" vertex="1">
                    <mxGeometry x="30" width="150" height="30" as="geometry"/>
                </mxCell>
                <mxCell id="QMpGWt-PJ4E0V8jMxKkS-70" value="" style="shape=partialRectangle;collapsible=0;dropTarget=0;pointerEvents=0;fillColor=none;top=0;left=0;bottom=0;right=0;points=[[0,0.5],[1,0.5]];portConstraint=eastwest;" parent="QMpGWt-PJ4E0V8jMxKkS-66" vertex="1">
                    <mxGeometry y="60" width="180" height="30" as="geometry"/>
                </mxCell>
                <mxCell id="QMpGWt-PJ4E0V8jMxKkS-71" value="" style="shape=partialRectangle;connectable=0;fillColor=none;top=0;left=0;bottom=0;right=0;editable=1;overflow=hidden;" parent="QMpGWt-PJ4E0V8jMxKkS-70" vertex="1">
                    <mxGeometry width="30" height="30" as="geometry"/>
                </mxCell>
                <mxCell id="QMpGWt-PJ4E0V8jMxKkS-72" value="Authorized" style="shape=partialRectangle;connectable=0;fillColor=none;top=0;left=0;bottom=0;right=0;align=left;spacingLeft=6;overflow=hidden;" parent="QMpGWt-PJ4E0V8jMxKkS-70" vertex="1">
                    <mxGeometry x="30" width="150" height="30" as="geometry"/>
                </mxCell>
                <mxCell id="QMpGWt-PJ4E0V8jMxKkS-141" style="edgeStyle=orthogonalEdgeStyle;rounded=0;orthogonalLoop=1;jettySize=auto;html=1;exitX=0.5;exitY=0;exitDx=0;exitDy=0;entryX=0.5;entryY=1;entryDx=0;entryDy=0;" parent="4yJEjgQOaPBj33m1Sq-Z-1" source="QMpGWt-PJ4E0V8jMxKkS-73" target="QMpGWt-PJ4E0V8jMxKkS-126" edge="1">
                    <mxGeometry relative="1" as="geometry"/>
                </mxCell>
                <mxCell id="QMpGWt-PJ4E0V8jMxKkS-73" value="Stage" style="shape=table;startSize=30;container=1;collapsible=1;childLayout=tableLayout;fixedRows=1;rowLines=0;fontStyle=1;align=center;resizeLast=1;" parent="4yJEjgQOaPBj33m1Sq-Z-1" vertex="1">
                    <mxGeometry x="346" y="101" width="180" height="100" as="geometry"/>
                </mxCell>
                <mxCell id="QMpGWt-PJ4E0V8jMxKkS-74" value="" style="shape=partialRectangle;collapsible=0;dropTarget=0;pointerEvents=0;fillColor=none;top=0;left=0;bottom=1;right=0;points=[[0,0.5],[1,0.5]];portConstraint=eastwest;" parent="QMpGWt-PJ4E0V8jMxKkS-73" vertex="1">
                    <mxGeometry y="30" width="180" height="30" as="geometry"/>
                </mxCell>
                <mxCell id="QMpGWt-PJ4E0V8jMxKkS-75" value="PK" style="shape=partialRectangle;connectable=0;fillColor=none;top=0;left=0;bottom=0;right=0;fontStyle=1;overflow=hidden;" parent="QMpGWt-PJ4E0V8jMxKkS-74" vertex="1">
                    <mxGeometry width="30" height="30" as="geometry"/>
                </mxCell>
                <mxCell id="QMpGWt-PJ4E0V8jMxKkS-76" value="Unique ID int NOT NULL" style="shape=partialRectangle;connectable=0;fillColor=none;top=0;left=0;bottom=0;right=0;align=left;spacingLeft=6;fontStyle=5;overflow=hidden;" parent="QMpGWt-PJ4E0V8jMxKkS-74" vertex="1">
                    <mxGeometry x="30" width="150" height="30" as="geometry"/>
                </mxCell>
                <mxCell id="QMpGWt-PJ4E0V8jMxKkS-80" value="" style="shape=partialRectangle;collapsible=0;dropTarget=0;pointerEvents=0;fillColor=none;top=0;left=0;bottom=0;right=0;points=[[0,0.5],[1,0.5]];portConstraint=eastwest;" parent="QMpGWt-PJ4E0V8jMxKkS-73" vertex="1">
                    <mxGeometry y="60" width="180" height="30" as="geometry"/>
                </mxCell>
                <mxCell id="QMpGWt-PJ4E0V8jMxKkS-81" value="" style="shape=partialRectangle;connectable=0;fillColor=none;top=0;left=0;bottom=0;right=0;editable=1;overflow=hidden;" parent="QMpGWt-PJ4E0V8jMxKkS-80" vertex="1">
                    <mxGeometry width="30" height="30" as="geometry"/>
                </mxCell>
                <mxCell id="QMpGWt-PJ4E0V8jMxKkS-82" value="Size" style="shape=partialRectangle;connectable=0;fillColor=none;top=0;left=0;bottom=0;right=0;align=left;spacingLeft=6;overflow=hidden;" parent="QMpGWt-PJ4E0V8jMxKkS-80" vertex="1">
                    <mxGeometry x="30" width="150" height="30" as="geometry"/>
                </mxCell>
                <mxCell id="QMpGWt-PJ4E0V8jMxKkS-83" value="Band" style="shape=table;startSize=30;container=1;collapsible=1;childLayout=tableLayout;fixedRows=1;rowLines=0;fontStyle=1;align=center;resizeLast=1;" parent="4yJEjgQOaPBj33m1Sq-Z-1" vertex="1">
                    <mxGeometry x="576" y="101" width="250" height="250" as="geometry"/>
                </mxCell>
                <mxCell id="QMpGWt-PJ4E0V8jMxKkS-84" value="" style="shape=partialRectangle;collapsible=0;dropTarget=0;pointerEvents=0;fillColor=none;points=[[0,0.5],[1,0.5]];portConstraint=eastwest;top=0;left=0;right=0;bottom=1;" parent="QMpGWt-PJ4E0V8jMxKkS-83" vertex="1">
                    <mxGeometry y="30" width="250" height="30" as="geometry"/>
                </mxCell>
                <mxCell id="QMpGWt-PJ4E0V8jMxKkS-85" value="PK" style="shape=partialRectangle;overflow=hidden;connectable=0;fillColor=none;top=0;left=0;bottom=0;right=0;fontStyle=1;" parent="QMpGWt-PJ4E0V8jMxKkS-84" vertex="1">
                    <mxGeometry width="30" height="30" as="geometry"/>
                </mxCell>
                <mxCell id="QMpGWt-PJ4E0V8jMxKkS-86" value="Unique ID int NOT NULL " style="shape=partialRectangle;overflow=hidden;connectable=0;fillColor=none;top=0;left=0;bottom=0;right=0;align=left;spacingLeft=6;fontStyle=5;" parent="QMpGWt-PJ4E0V8jMxKkS-84" vertex="1">
                    <mxGeometry x="30" width="220" height="30" as="geometry"/>
                </mxCell>
                <mxCell id="0" value="" style="shape=partialRectangle;collapsible=0;dropTarget=0;pointerEvents=0;fillColor=none;top=0;left=0;bottom=0;right=0;points=[[0,0.5],[1,0.5]];portConstraint=eastwest;" parent="QMpGWt-PJ4E0V8jMxKkS-83" vertex="1">
                    <mxGeometry y="60" width="250" height="30" as="geometry"/>
                </mxCell>
                <mxCell id="1" value="" style="shape=partialRectangle;connectable=0;fillColor=none;top=0;left=0;bottom=0;right=0;editable=1;overflow=hidden;" parent="0" vertex="1">
                    <mxGeometry width="30" height="30" as="geometry"/>
                </mxCell>
                <mxCell id="2" value="Name" style="shape=partialRectangle;connectable=0;fillColor=none;top=0;left=0;bottom=0;right=0;align=left;spacingLeft=6;overflow=hidden;" parent="0" vertex="1">
                    <mxGeometry x="30" width="220" height="30" as="geometry"/>
                </mxCell>
                <mxCell id="QMpGWt-PJ4E0V8jMxKkS-96" value="" style="shape=partialRectangle;collapsible=0;dropTarget=0;pointerEvents=0;fillColor=none;points=[[0,0.5],[1,0.5]];portConstraint=eastwest;top=0;left=0;right=0;bottom=0;" parent="QMpGWt-PJ4E0V8jMxKkS-83" vertex="1">
                    <mxGeometry y="90" width="250" height="30" as="geometry"/>
                </mxCell>
                <mxCell id="QMpGWt-PJ4E0V8jMxKkS-97" value="" style="shape=partialRectangle;overflow=hidden;connectable=0;fillColor=none;top=0;left=0;bottom=0;right=0;" parent="QMpGWt-PJ4E0V8jMxKkS-96" vertex="1">
                    <mxGeometry width="30" height="30" as="geometry"/>
                </mxCell>
                <mxCell id="QMpGWt-PJ4E0V8jMxKkS-98" value="Logo" style="shape=partialRectangle;overflow=hidden;connectable=0;fillColor=none;top=0;left=0;bottom=0;right=0;align=left;spacingLeft=6;" parent="QMpGWt-PJ4E0V8jMxKkS-96" vertex="1">
                    <mxGeometry x="30" width="220" height="30" as="geometry"/>
                </mxCell>
                <mxCell id="QMpGWt-PJ4E0V8jMxKkS-90" value="" style="shape=partialRectangle;collapsible=0;dropTarget=0;pointerEvents=0;fillColor=none;points=[[0,0.5],[1,0.5]];portConstraint=eastwest;top=0;left=0;right=0;bottom=0;" parent="QMpGWt-PJ4E0V8jMxKkS-83" vertex="1">
                    <mxGeometry y="120" width="250" height="30" as="geometry"/>
                </mxCell>
                <mxCell id="QMpGWt-PJ4E0V8jMxKkS-91" value="" style="shape=partialRectangle;overflow=hidden;connectable=0;fillColor=none;top=0;left=0;bottom=0;right=0;" parent="QMpGWt-PJ4E0V8jMxKkS-90" vertex="1">
                    <mxGeometry width="30" height="30" as="geometry"/>
                </mxCell>
                <mxCell id="QMpGWt-PJ4E0V8jMxKkS-92" value="Members (?)" style="shape=partialRectangle;overflow=hidden;connectable=0;fillColor=none;top=0;left=0;bottom=0;right=0;align=left;spacingLeft=6;" parent="QMpGWt-PJ4E0V8jMxKkS-90" vertex="1">
                    <mxGeometry x="30" width="220" height="30" as="geometry"/>
                </mxCell>
                <mxCell id="QMpGWt-PJ4E0V8jMxKkS-93" value="" style="shape=partialRectangle;collapsible=0;dropTarget=0;pointerEvents=0;fillColor=none;top=0;left=0;bottom=0;right=0;points=[[0,0.5],[1,0.5]];portConstraint=eastwest;" parent="QMpGWt-PJ4E0V8jMxKkS-83" vertex="1">
                    <mxGeometry y="150" width="250" height="30" as="geometry"/>
                </mxCell>
                <mxCell id="QMpGWt-PJ4E0V8jMxKkS-94" value="" style="shape=partialRectangle;connectable=0;fillColor=none;top=0;left=0;bottom=0;right=0;editable=1;overflow=hidden;" parent="QMpGWt-PJ4E0V8jMxKkS-93" vertex="1">
                    <mxGeometry width="30" height="30" as="geometry"/>
                </mxCell>
                <mxCell id="QMpGWt-PJ4E0V8jMxKkS-95" value="Scores" style="shape=partialRectangle;connectable=0;fillColor=none;top=0;left=0;bottom=0;right=0;align=left;spacingLeft=6;overflow=hidden;" parent="QMpGWt-PJ4E0V8jMxKkS-93" vertex="1">
                    <mxGeometry x="30" width="220" height="30" as="geometry"/>
                </mxCell>
                <mxCell id="QMpGWt-PJ4E0V8jMxKkS-99" value="" style="shape=partialRectangle;collapsible=0;dropTarget=0;pointerEvents=0;fillColor=none;top=0;left=0;bottom=0;right=0;points=[[0,0.5],[1,0.5]];portConstraint=eastwest;" parent="QMpGWt-PJ4E0V8jMxKkS-83" vertex="1">
                    <mxGeometry y="180" width="250" height="30" as="geometry"/>
                </mxCell>
                <mxCell id="QMpGWt-PJ4E0V8jMxKkS-100" value="" style="shape=partialRectangle;connectable=0;fillColor=none;top=0;left=0;bottom=0;right=0;editable=1;overflow=hidden;" parent="QMpGWt-PJ4E0V8jMxKkS-99" vertex="1">
                    <mxGeometry width="30" height="30" as="geometry"/>
                </mxCell>
                <mxCell id="QMpGWt-PJ4E0V8jMxKkS-101" value="Genre" style="shape=partialRectangle;connectable=0;fillColor=none;top=0;left=0;bottom=0;right=0;align=left;spacingLeft=6;overflow=hidden;" parent="QMpGWt-PJ4E0V8jMxKkS-99" vertex="1">
                    <mxGeometry x="30" width="220" height="30" as="geometry"/>
                </mxCell>
                <mxCell id="QMpGWt-PJ4E0V8jMxKkS-102" value="" style="shape=partialRectangle;collapsible=0;dropTarget=0;pointerEvents=0;fillColor=none;top=0;left=0;bottom=0;right=0;points=[[0,0.5],[1,0.5]];portConstraint=eastwest;" parent="QMpGWt-PJ4E0V8jMxKkS-83" vertex="1">
                    <mxGeometry y="210" width="250" height="30" as="geometry"/>
                </mxCell>
                <mxCell id="QMpGWt-PJ4E0V8jMxKkS-103" value="" style="shape=partialRectangle;connectable=0;fillColor=none;top=0;left=0;bottom=0;right=0;editable=1;overflow=hidden;" parent="QMpGWt-PJ4E0V8jMxKkS-102" vertex="1">
                    <mxGeometry width="30" height="30" as="geometry"/>
                </mxCell>
                <mxCell id="QMpGWt-PJ4E0V8jMxKkS-104" value="Tags" style="shape=partialRectangle;connectable=0;fillColor=none;top=0;left=0;bottom=0;right=0;align=left;spacingLeft=6;overflow=hidden;" parent="QMpGWt-PJ4E0V8jMxKkS-102" vertex="1">
                    <mxGeometry x="30" width="220" height="30" as="geometry"/>
                </mxCell>
                <mxCell id="QMpGWt-PJ4E0V8jMxKkS-105" value="Admin" style="shape=table;startSize=30;container=1;collapsible=1;childLayout=tableLayout;fixedRows=1;rowLines=0;fontStyle=1;align=center;resizeLast=1;" parent="4yJEjgQOaPBj33m1Sq-Z-1" vertex="1">
                    <mxGeometry x="583" y="731" width="180" height="70" as="geometry"/>
                </mxCell>
                <mxCell id="QMpGWt-PJ4E0V8jMxKkS-106" value="" style="shape=partialRectangle;collapsible=0;dropTarget=0;pointerEvents=0;fillColor=none;top=0;left=0;bottom=1;right=0;points=[[0,0.5],[1,0.5]];portConstraint=eastwest;" parent="QMpGWt-PJ4E0V8jMxKkS-105" vertex="1">
                    <mxGeometry y="30" width="180" height="30" as="geometry"/>
                </mxCell>
                <mxCell id="QMpGWt-PJ4E0V8jMxKkS-107" value="PK" style="shape=partialRectangle;connectable=0;fillColor=none;top=0;left=0;bottom=0;right=0;fontStyle=1;overflow=hidden;" parent="QMpGWt-PJ4E0V8jMxKkS-106" vertex="1">
                    <mxGeometry width="30" height="30" as="geometry"/>
                </mxCell>
                <mxCell id="QMpGWt-PJ4E0V8jMxKkS-108" value="UniqueID" style="shape=partialRectangle;connectable=0;fillColor=none;top=0;left=0;bottom=0;right=0;align=left;spacingLeft=6;fontStyle=5;overflow=hidden;" parent="QMpGWt-PJ4E0V8jMxKkS-106" vertex="1">
                    <mxGeometry x="30" width="150" height="30" as="geometry"/>
                </mxCell>
                <mxCell id="QMpGWt-PJ4E0V8jMxKkS-109" value="Seller" style="shape=table;startSize=30;container=1;collapsible=1;childLayout=tableLayout;fixedRows=1;rowLines=0;fontStyle=1;align=center;resizeLast=1;" parent="4yJEjgQOaPBj33m1Sq-Z-1" vertex="1">
                    <mxGeometry x="583" y="621" width="180" height="70" as="geometry"/>
                </mxCell>
                <mxCell id="QMpGWt-PJ4E0V8jMxKkS-110" value="" style="shape=partialRectangle;collapsible=0;dropTarget=0;pointerEvents=0;fillColor=none;top=0;left=0;bottom=1;right=0;points=[[0,0.5],[1,0.5]];portConstraint=eastwest;" parent="QMpGWt-PJ4E0V8jMxKkS-109" vertex="1">
                    <mxGeometry y="30" width="180" height="30" as="geometry"/>
                </mxCell>
                <mxCell id="QMpGWt-PJ4E0V8jMxKkS-111" value="PK" style="shape=partialRectangle;connectable=0;fillColor=none;top=0;left=0;bottom=0;right=0;fontStyle=1;overflow=hidden;" parent="QMpGWt-PJ4E0V8jMxKkS-110" vertex="1">
                    <mxGeometry width="30" height="30" as="geometry"/>
                </mxCell>
                <mxCell id="QMpGWt-PJ4E0V8jMxKkS-112" value="UniqueID" style="shape=partialRectangle;connectable=0;fillColor=none;top=0;left=0;bottom=0;right=0;align=left;spacingLeft=6;fontStyle=5;overflow=hidden;" parent="QMpGWt-PJ4E0V8jMxKkS-110" vertex="1">
                    <mxGeometry x="30" width="150" height="30" as="geometry"/>
                </mxCell>
                <mxCell id="QMpGWt-PJ4E0V8jMxKkS-113" value="User" style="shape=table;startSize=30;container=1;collapsible=1;childLayout=tableLayout;fixedRows=1;rowLines=0;fontStyle=1;align=center;resizeLast=1;" parent="4yJEjgQOaPBj33m1Sq-Z-1" vertex="1">
                    <mxGeometry x="316" y="501" width="180" height="150" as="geometry"/>
                </mxCell>
                <mxCell id="QMpGWt-PJ4E0V8jMxKkS-114" value="" style="shape=partialRectangle;collapsible=0;dropTarget=0;pointerEvents=0;fillColor=none;top=0;left=0;bottom=1;right=0;points=[[0,0.5],[1,0.5]];portConstraint=eastwest;" parent="QMpGWt-PJ4E0V8jMxKkS-113" vertex="1">
                    <mxGeometry y="30" width="180" height="30" as="geometry"/>
                </mxCell>
                <mxCell id="QMpGWt-PJ4E0V8jMxKkS-115" value="PK" style="shape=partialRectangle;connectable=0;fillColor=none;top=0;left=0;bottom=0;right=0;fontStyle=1;overflow=hidden;" parent="QMpGWt-PJ4E0V8jMxKkS-114" vertex="1">
                    <mxGeometry width="30" height="30" as="geometry"/>
                </mxCell>
                <mxCell id="QMpGWt-PJ4E0V8jMxKkS-116" value="Unique ID int NOT NULL" style="shape=partialRectangle;connectable=0;fillColor=none;top=0;left=0;bottom=0;right=0;align=left;spacingLeft=6;fontStyle=5;overflow=hidden;" parent="QMpGWt-PJ4E0V8jMxKkS-114" vertex="1">
                    <mxGeometry x="30" width="150" height="30" as="geometry"/>
                </mxCell>
                <mxCell id="QMpGWt-PJ4E0V8jMxKkS-117" value="" style="shape=partialRectangle;collapsible=0;dropTarget=0;pointerEvents=0;fillColor=none;top=0;left=0;bottom=0;right=0;points=[[0,0.5],[1,0.5]];portConstraint=eastwest;" parent="QMpGWt-PJ4E0V8jMxKkS-113" vertex="1">
                    <mxGeometry y="60" width="180" height="30" as="geometry"/>
                </mxCell>
                <mxCell id="QMpGWt-PJ4E0V8jMxKkS-118" value="" style="shape=partialRectangle;connectable=0;fillColor=none;top=0;left=0;bottom=0;right=0;editable=1;overflow=hidden;" parent="QMpGWt-PJ4E0V8jMxKkS-117" vertex="1">
                    <mxGeometry width="30" height="30" as="geometry"/>
                </mxCell>
                <mxCell id="QMpGWt-PJ4E0V8jMxKkS-119" value="Name" style="shape=partialRectangle;connectable=0;fillColor=none;top=0;left=0;bottom=0;right=0;align=left;spacingLeft=6;overflow=hidden;" parent="QMpGWt-PJ4E0V8jMxKkS-117" vertex="1">
                    <mxGeometry x="30" width="150" height="30" as="geometry"/>
                </mxCell>
                <mxCell id="QMpGWt-PJ4E0V8jMxKkS-120" value="" style="shape=partialRectangle;collapsible=0;dropTarget=0;pointerEvents=0;fillColor=none;top=0;left=0;bottom=0;right=0;points=[[0,0.5],[1,0.5]];portConstraint=eastwest;" parent="QMpGWt-PJ4E0V8jMxKkS-113" vertex="1">
                    <mxGeometry y="90" width="180" height="30" as="geometry"/>
                </mxCell>
                <mxCell id="QMpGWt-PJ4E0V8jMxKkS-121" value="" style="shape=partialRectangle;connectable=0;fillColor=none;top=0;left=0;bottom=0;right=0;editable=1;overflow=hidden;" parent="QMpGWt-PJ4E0V8jMxKkS-120" vertex="1">
                    <mxGeometry width="30" height="30" as="geometry"/>
                </mxCell>
                <mxCell id="QMpGWt-PJ4E0V8jMxKkS-122" value="Sername" style="shape=partialRectangle;connectable=0;fillColor=none;top=0;left=0;bottom=0;right=0;align=left;spacingLeft=6;overflow=hidden;" parent="QMpGWt-PJ4E0V8jMxKkS-120" vertex="1">
                    <mxGeometry x="30" width="150" height="30" as="geometry"/>
                </mxCell>
                <mxCell id="QMpGWt-PJ4E0V8jMxKkS-123" value="" style="shape=partialRectangle;collapsible=0;dropTarget=0;pointerEvents=0;fillColor=none;top=0;left=0;bottom=0;right=0;points=[[0,0.5],[1,0.5]];portConstraint=eastwest;" parent="QMpGWt-PJ4E0V8jMxKkS-113" vertex="1">
                    <mxGeometry y="120" width="180" height="30" as="geometry"/>
                </mxCell>
                <mxCell id="QMpGWt-PJ4E0V8jMxKkS-124" value="" style="shape=partialRectangle;connectable=0;fillColor=none;top=0;left=0;bottom=0;right=0;editable=1;overflow=hidden;" parent="QMpGWt-PJ4E0V8jMxKkS-123" vertex="1">
                    <mxGeometry width="30" height="30" as="geometry"/>
                </mxCell>
                <mxCell id="QMpGWt-PJ4E0V8jMxKkS-125" value="Permissions" style="shape=partialRectangle;connectable=0;fillColor=none;top=0;left=0;bottom=0;right=0;align=left;spacingLeft=6;overflow=hidden;" parent="QMpGWt-PJ4E0V8jMxKkS-123" vertex="1">
                    <mxGeometry x="30" width="150" height="30" as="geometry"/>
                </mxCell>
                <mxCell id="QMpGWt-PJ4E0V8jMxKkS-139" value="1" style="text;html=1;align=center;verticalAlign=middle;resizable=0;points=[];autosize=1;" parent="4yJEjgQOaPBj33m1Sq-Z-1" vertex="1">
                    <mxGeometry x="640" y="70" width="20" height="20" as="geometry"/>
                </mxCell>
                <mxCell id="QMpGWt-PJ4E0V8jMxKkS-140" value="1 .. N" style="text;html=1;align=center;verticalAlign=middle;resizable=0;points=[];autosize=1;" parent="4yJEjgQOaPBj33m1Sq-Z-1" vertex="1">
                    <mxGeometry x="299" y="-106" width="40" height="20" as="geometry"/>
                </mxCell>
                <mxCell id="QMpGWt-PJ4E0V8jMxKkS-142" value="0 .. N" style="text;html=1;align=center;verticalAlign=middle;resizable=0;points=[];autosize=1;" parent="4yJEjgQOaPBj33m1Sq-Z-1" vertex="1">
                    <mxGeometry x="437" y="39" width="40" height="20" as="geometry"/>
                </mxCell>
                <mxCell id="QMpGWt-PJ4E0V8jMxKkS-143" value="1" style="text;html=1;align=center;verticalAlign=middle;resizable=0;points=[];autosize=1;" parent="4yJEjgQOaPBj33m1Sq-Z-1" vertex="1">
                    <mxGeometry x="440" y="80" width="20" height="20" as="geometry"/>
                </mxCell>
                <mxCell id="26" style="edgeStyle=orthogonalEdgeStyle;rounded=0;orthogonalLoop=1;jettySize=auto;html=1;exitX=0;exitY=0.5;exitDx=0;exitDy=0;entryX=1;entryY=0.5;entryDx=0;entryDy=0;" edge="1" parent="4yJEjgQOaPBj33m1Sq-Z-1" source="17" target="QMpGWt-PJ4E0V8jMxKkS-84">
                    <mxGeometry relative="1" as="geometry"/>
                </mxCell>
                <mxCell id="13" value="Member" style="shape=table;startSize=30;container=1;collapsible=1;childLayout=tableLayout;fixedRows=1;rowLines=0;fontStyle=1;align=center;resizeLast=1;" vertex="1" parent="4yJEjgQOaPBj33m1Sq-Z-1">
                    <mxGeometry x="922" y="100" width="180" height="159.5" as="geometry"/>
                </mxCell>
                <mxCell id="14" value="" style="shape=partialRectangle;collapsible=0;dropTarget=0;pointerEvents=0;fillColor=none;top=0;left=0;bottom=1;right=0;points=[[0,0.5],[1,0.5]];portConstraint=eastwest;" vertex="1" parent="13">
                    <mxGeometry y="30" width="180" height="30" as="geometry"/>
                </mxCell>
                <mxCell id="15" value="PK" style="shape=partialRectangle;connectable=0;fillColor=none;top=0;left=0;bottom=0;right=0;fontStyle=1;overflow=hidden;" vertex="1" parent="14">
                    <mxGeometry width="30" height="30" as="geometry"/>
                </mxCell>
                <mxCell id="16" value="UniqueID" style="shape=partialRectangle;connectable=0;fillColor=none;top=0;left=0;bottom=0;right=0;align=left;spacingLeft=6;fontStyle=5;overflow=hidden;" vertex="1" parent="14">
                    <mxGeometry x="30" width="150" height="30" as="geometry"/>
                </mxCell>
                <mxCell id="17" value="" style="shape=partialRectangle;collapsible=0;dropTarget=0;pointerEvents=0;fillColor=none;top=0;left=0;bottom=0;right=0;points=[[0,0.5],[1,0.5]];portConstraint=eastwest;" vertex="1" parent="13">
                    <mxGeometry y="60" width="180" height="30" as="geometry"/>
                </mxCell>
                <mxCell id="18" value="FK" style="shape=partialRectangle;connectable=0;fillColor=none;top=0;left=0;bottom=0;right=0;editable=1;overflow=hidden;" vertex="1" parent="17">
                    <mxGeometry width="30" height="30" as="geometry"/>
                </mxCell>
                <mxCell id="19" value="Band ID" style="shape=partialRectangle;connectable=0;fillColor=none;top=0;left=0;bottom=0;right=0;align=left;spacingLeft=6;overflow=hidden;" vertex="1" parent="17">
                    <mxGeometry x="30" width="150" height="30" as="geometry"/>
                </mxCell>
                <mxCell id="20" value="" style="shape=partialRectangle;collapsible=0;dropTarget=0;pointerEvents=0;fillColor=none;top=0;left=0;bottom=0;right=0;points=[[0,0.5],[1,0.5]];portConstraint=eastwest;" vertex="1" parent="13">
                    <mxGeometry y="90" width="180" height="30" as="geometry"/>
                </mxCell>
                <mxCell id="21" value="" style="shape=partialRectangle;connectable=0;fillColor=none;top=0;left=0;bottom=0;right=0;editable=1;overflow=hidden;" vertex="1" parent="20">
                    <mxGeometry width="30" height="30" as="geometry"/>
                </mxCell>
                <mxCell id="22" value="Name" style="shape=partialRectangle;connectable=0;fillColor=none;top=0;left=0;bottom=0;right=0;align=left;spacingLeft=6;overflow=hidden;" vertex="1" parent="20">
                    <mxGeometry x="30" width="150" height="30" as="geometry"/>
                </mxCell>
                <mxCell id="23" value="" style="shape=partialRectangle;collapsible=0;dropTarget=0;pointerEvents=0;fillColor=none;top=0;left=0;bottom=0;right=0;points=[[0,0.5],[1,0.5]];portConstraint=eastwest;" vertex="1" parent="13">
                    <mxGeometry y="120" width="180" height="30" as="geometry"/>
                </mxCell>
                <mxCell id="24" value="" style="shape=partialRectangle;connectable=0;fillColor=none;top=0;left=0;bottom=0;right=0;editable=1;overflow=hidden;" vertex="1" parent="23">
                    <mxGeometry width="30" height="30" as="geometry"/>
                </mxCell>
                <mxCell id="25" value="Sername" style="shape=partialRectangle;connectable=0;fillColor=none;top=0;left=0;bottom=0;right=0;align=left;spacingLeft=6;overflow=hidden;" vertex="1" parent="23">
                    <mxGeometry x="30" width="150" height="30" as="geometry"/>
                </mxCell>
            </root>
        </mxGraphModel>
    </diagram>
</mxfile>